<svg width="128" height="38" viewBox="0 0 128 38" fill="none" xmlns="http://www.w3.org/2000/svg">
<path fill-rule="evenodd" clip-rule="evenodd" d="M98.0507 37.6181H105.681V22.7236H116.936C116.936 24.0603 117.508 25.397 117.699 26.5427L120.179 37.809H128L126.474 31.1256C125.902 28.8342 125.329 26.5427 124.948 24.6332C124.185 21.196 123.422 15.2764 118.08 15.2764L123.613 0H115.791C115.601 1.14573 115.028 2.67337 114.647 3.8191L110.641 15.0854H105.872V0.190952H98.2415V38L98.0507 37.6181ZM0 6.68342V37.809H7.82117V7.63819H22.7004V37.809H30.5216V6.11056C30.5216 2.86433 29.3771 0 26.1341 0H4.38748C0.953799 0 0 3.05528 0 6.49246V6.68342ZM32.8107 4.39197V37.6181H40.6319V27.6884H55.3204V37.6181H63.1416V5.15579C63.1416 2.10051 61.6155 0 58.7541 0H37.0075C34.5276 0 32.8107 2.10051 32.8107 4.39197ZM40.6319 7.44724H55.3204V19.8593H40.6319V7.44724ZM65.24 5.15579V37.6181H73.0611V7.44724H87.7496V19.8593H77.8301C77.6394 20.6231 77.4486 21.005 77.0671 21.7688L75.1595 27.6884C79.3562 27.6884 83.5529 27.6884 87.7496 27.6884C91.1833 27.6884 95.5708 28.2613 95.5708 22.7236V4.39197C95.5708 1.7186 93.6632 0 91.1833 0H69.6274C66.766 0 65.24 2.29147 65.24 5.15579Z" fill="white"/>
</svg>
